<?xml version="1.0" encoding="UTF-8" standalone="no"?>
<!DOCTYPE svg PUBLIC "-//W3C//DTD SVG 1.1//EN"
 "http://www.w3.org/Graphics/SVG/1.1/DTD/svg11.dtd">
<!-- Generated by graphviz version 2.40.1 (20161225.0304)
 -->
<!-- Title: dependency&#45;cruiser output Pages: 1 -->
<svg width="876pt" height="436pt"
 viewBox="0.00 0.00 876.26 435.50" xmlns="http://www.w3.org/2000/svg" xmlns:xlink="http://www.w3.org/1999/xlink">
<g id="graph0" class="graph" transform="scale(1 1) rotate(0) translate(4 431.5)">
<title>dependency&#45;cruiser output</title>
<polygon fill="#ffffff" stroke="transparent" points="-4,4 -4,-431.5 872.259,-431.5 872.259,4 -4,4"/>
<g id="clust1" class="cluster">
<title>cluster_src</title>
<path fill="none" stroke="#000000" stroke-width="2" d="M20,-25.5C20,-25.5 848.259,-25.5 848.259,-25.5 854.259,-25.5 860.259,-31.5 860.259,-37.5 860.259,-37.5 860.259,-407.5 860.259,-407.5 860.259,-413.5 854.259,-419.5 848.259,-419.5 848.259,-419.5 20,-419.5 20,-419.5 14,-419.5 8,-413.5 8,-407.5 8,-407.5 8,-37.5 8,-37.5 8,-31.5 14,-25.5 20,-25.5"/>
<text text-anchor="middle" x="434.1295" y="-408.3" font-family="Helvetica,sans-Serif" font-weight="bold" font-size="9.00" fill="#000000">src</text>
</g>
<g id="clust2" class="cluster">
<title>cluster_src/configs</title>
<path fill="none" stroke="#000000" stroke-width="2" d="M131.7839,-43.5C131.7839,-43.5 275.8328,-43.5 275.8328,-43.5 281.8328,-43.5 287.8328,-49.5 287.8328,-55.5 287.8328,-55.5 287.8328,-82.5 287.8328,-82.5 287.8328,-88.5 281.8328,-94.5 275.8328,-94.5 275.8328,-94.5 131.7839,-94.5 131.7839,-94.5 125.7839,-94.5 119.7839,-88.5 119.7839,-82.5 119.7839,-82.5 119.7839,-55.5 119.7839,-55.5 119.7839,-49.5 125.7839,-43.5 131.7839,-43.5"/>
<text text-anchor="middle" x="203.8083" y="-83.3" font-family="Helvetica,sans-Serif" font-weight="bold" font-size="9.00" fill="#000000">configs</text>
</g>
<g id="clust3" class="cluster">
<title>cluster_src/helpers</title>
<path fill="none" stroke="#000000" stroke-width="2" d="M508.6592,-150.5C508.6592,-150.5 644.4495,-150.5 644.4495,-150.5 650.4495,-150.5 656.4495,-156.5 656.4495,-162.5 656.4495,-162.5 656.4495,-218.5 656.4495,-218.5 656.4495,-224.5 650.4495,-230.5 644.4495,-230.5 644.4495,-230.5 508.6592,-230.5 508.6592,-230.5 502.6592,-230.5 496.6592,-224.5 496.6592,-218.5 496.6592,-218.5 496.6592,-162.5 496.6592,-162.5 496.6592,-156.5 502.6592,-150.5 508.6592,-150.5"/>
<text text-anchor="middle" x="576.5543" y="-219.3" font-family="Helvetica,sans-Serif" font-weight="bold" font-size="9.00" fill="#000000">helpers</text>
</g>
<g id="clust4" class="cluster">
<title>cluster_src/model</title>
<path fill="none" stroke="#000000" stroke-width="2" d="M598.4495,-33.5C598.4495,-33.5 762.259,-33.5 762.259,-33.5 768.259,-33.5 774.259,-39.5 774.259,-45.5 774.259,-45.5 774.259,-130.5 774.259,-130.5 774.259,-136.5 768.259,-142.5 762.259,-142.5 762.259,-142.5 598.4495,-142.5 598.4495,-142.5 592.4495,-142.5 586.4495,-136.5 586.4495,-130.5 586.4495,-130.5 586.4495,-45.5 586.4495,-45.5 586.4495,-39.5 592.4495,-33.5 598.4495,-33.5"/>
<text text-anchor="middle" x="680.3542" y="-131.3" font-family="Helvetica,sans-Serif" font-weight="bold" font-size="9.00" fill="#000000">model</text>
</g>
<g id="clust5" class="cluster">
<title>cluster_src/outOfBox</title>
<path fill="none" stroke="#000000" stroke-width="2" d="M112.02,-225.5C112.02,-225.5 476.6592,-225.5 476.6592,-225.5 482.6592,-225.5 488.6592,-231.5 488.6592,-237.5 488.6592,-237.5 488.6592,-382.5 488.6592,-382.5 488.6592,-388.5 482.6592,-394.5 476.6592,-394.5 476.6592,-394.5 112.02,-394.5 112.02,-394.5 106.02,-394.5 100.02,-388.5 100.02,-382.5 100.02,-382.5 100.02,-237.5 100.02,-237.5 100.02,-231.5 106.02,-225.5 112.02,-225.5"/>
<text text-anchor="middle" x="294.3396" y="-383.3" font-family="Helvetica,sans-Serif" font-weight="bold" font-size="9.00" fill="#000000">outOfBox</text>
</g>
<g id="clust6" class="cluster">
<title>cluster_src/outOfBox/scatterPlayer</title>
<path fill="none" stroke="#000000" stroke-width="2" d="M120.02,-318.5C120.02,-318.5 269.8191,-318.5 269.8191,-318.5 275.8191,-318.5 281.8191,-324.5 281.8191,-330.5 281.8191,-330.5 281.8191,-357.5 281.8191,-357.5 281.8191,-363.5 275.8191,-369.5 269.8191,-369.5 269.8191,-369.5 120.02,-369.5 120.02,-369.5 114.02,-369.5 108.02,-363.5 108.02,-357.5 108.02,-357.5 108.02,-330.5 108.02,-330.5 108.02,-324.5 114.02,-318.5 120.02,-318.5"/>
<text text-anchor="middle" x="194.9196" y="-358.3" font-family="Helvetica,sans-Serif" font-weight="bold" font-size="9.00" fill="#000000">scatterPlayer</text>
</g>
<g id="clust7" class="cluster">
<title>cluster_src/outOfBox/signPlayer</title>
<path fill="none" stroke="#000000" stroke-width="2" d="M223.8191,-259.5C223.8191,-259.5 468.6592,-259.5 468.6592,-259.5 474.6592,-259.5 480.6592,-265.5 480.6592,-271.5 480.6592,-271.5 480.6592,-298.5 480.6592,-298.5 480.6592,-304.5 474.6592,-310.5 468.6592,-310.5 468.6592,-310.5 223.8191,-310.5 223.8191,-310.5 217.8191,-310.5 211.8191,-304.5 211.8191,-298.5 211.8191,-298.5 211.8191,-271.5 211.8191,-271.5 211.8191,-265.5 217.8191,-259.5 223.8191,-259.5"/>
<text text-anchor="middle" x="346.2391" y="-299.3" font-family="Helvetica,sans-Serif" font-weight="bold" font-size="9.00" fill="#000000">signPlayer</text>
</g>
<g id="clust8" class="cluster">
<title>cluster_src/plugins</title>
<path fill="none" stroke="#000000" stroke-width="2" d="M28,-250.5C28,-250.5 80.02,-250.5 80.02,-250.5 86.02,-250.5 92.02,-256.5 92.02,-262.5 92.02,-262.5 92.02,-289.5 92.02,-289.5 92.02,-295.5 86.02,-301.5 80.02,-301.5 80.02,-301.5 28,-301.5 28,-301.5 22,-301.5 16,-295.5 16,-289.5 16,-289.5 16,-262.5 16,-262.5 16,-256.5 22,-250.5 28,-250.5"/>
<text text-anchor="middle" x="54.01" y="-290.3" font-family="Helvetica,sans-Serif" font-weight="bold" font-size="9.00" fill="#000000">plugins</text>
</g>
<g id="clust9" class="cluster">
<title>cluster_src/types</title>
<path fill="none" stroke="#000000" stroke-width="2" d="M794.259,-280.5C794.259,-280.5 840.259,-280.5 840.259,-280.5 846.259,-280.5 852.259,-286.5 852.259,-292.5 852.259,-292.5 852.259,-377.5 852.259,-377.5 852.259,-383.5 846.259,-389.5 840.259,-389.5 840.259,-389.5 794.259,-389.5 794.259,-389.5 788.259,-389.5 782.259,-383.5 782.259,-377.5 782.259,-377.5 782.259,-292.5 782.259,-292.5 782.259,-286.5 788.259,-280.5 794.259,-280.5"/>
<text text-anchor="middle" x="817.259" y="-378.3" font-family="Helvetica,sans-Serif" font-weight="bold" font-size="9.00" fill="#000000">types</text>
</g>
<g id="clust10" class="cluster">
<title>cluster_src/utils</title>
<path fill="none" stroke="#000000" stroke-width="2" d="M586.178,-238.5C586.178,-238.5 656.7209,-238.5 656.7209,-238.5 662.7209,-238.5 668.7209,-244.5 668.7209,-250.5 668.7209,-250.5 668.7209,-335.5 668.7209,-335.5 668.7209,-341.5 662.7209,-347.5 656.7209,-347.5 656.7209,-347.5 586.178,-347.5 586.178,-347.5 580.178,-347.5 574.178,-341.5 574.178,-335.5 574.178,-335.5 574.178,-250.5 574.178,-250.5 574.178,-244.5 580.178,-238.5 586.178,-238.5"/>
<text text-anchor="middle" x="621.4495" y="-336.3" font-family="Helvetica,sans-Serif" font-weight="bold" font-size="9.00" fill="#000000">utils</text>
</g>
<!-- package.json -->
<g id="node1" class="node">
<title>package.json</title>
<g id="a_node1"><a xlink:href="package.json" xlink:title="package.json">
<path fill="#ffee44" stroke="#000000" d="M560.5301,-17C560.5301,-17 502.7882,-17 502.7882,-17 499.9549,-17 497.1216,-14.1667 497.1216,-11.3333 497.1216,-11.3333 497.1216,-5.6667 497.1216,-5.6667 497.1216,-2.8333 499.9549,0 502.7882,0 502.7882,0 560.5301,0 560.5301,0 563.3635,0 566.1968,-2.8333 566.1968,-5.6667 566.1968,-5.6667 566.1968,-11.3333 566.1968,-11.3333 566.1968,-14.1667 563.3635,-17 560.5301,-17"/>
<text text-anchor="middle" x="531.6592" y="-5.8" font-family="Helvetica,sans-Serif" font-size="9.00" fill="#000000">package.json</text>
</a>
</g>
</g>
<!-- src/configs/eosNodes.ts -->
<g id="node2" class="node">
<title>src/configs/eosNodes.ts</title>
<g id="a_node2"><a xlink:href="src/configs/eosNodes.ts" xlink:title="eosNodes.ts">
<path fill="#ddfeff" stroke="#000000" d="M274.1798,-69C274.1798,-69 219.4584,-69 219.4584,-69 216.6251,-69 213.7917,-66.1667 213.7917,-63.3333 213.7917,-63.3333 213.7917,-57.6667 213.7917,-57.6667 213.7917,-54.8333 216.6251,-52 219.4584,-52 219.4584,-52 274.1798,-52 274.1798,-52 277.0131,-52 279.8464,-54.8333 279.8464,-57.6667 279.8464,-57.6667 279.8464,-63.3333 279.8464,-63.3333 279.8464,-66.1667 277.0131,-69 274.1798,-69"/>
<text text-anchor="middle" x="246.8191" y="-57.8" font-family="Helvetica,sans-Serif" font-size="9.00" fill="#000000">eosNodes.ts</text>
</a>
</g>
</g>
<!-- src/configs/index.ts -->
<g id="node3" class="node">
<title>src/configs/index.ts</title>
<g id="a_node3"><a xlink:href="src/configs/index.ts" xlink:title="index.ts">
<path fill="#ddfeff" stroke="#000000" d="M176.1173,-69C176.1173,-69 133.4506,-69 133.4506,-69 130.6173,-69 127.7839,-66.1667 127.7839,-63.3333 127.7839,-63.3333 127.7839,-57.6667 127.7839,-57.6667 127.7839,-54.8333 130.6173,-52 133.4506,-52 133.4506,-52 176.1173,-52 176.1173,-52 178.9506,-52 181.7839,-54.8333 181.7839,-57.6667 181.7839,-57.6667 181.7839,-63.3333 181.7839,-63.3333 181.7839,-66.1667 178.9506,-69 176.1173,-69"/>
<text text-anchor="middle" x="154.7839" y="-57.8" font-family="Helvetica,sans-Serif" font-size="9.00" fill="#000000">index.ts</text>
</a>
</g>
</g>
<!-- src/configs/index.ts&#45;&gt;src/configs/eosNodes.ts -->
<g id="edge1" class="edge">
<title>src/configs/index.ts&#45;&gt;src/configs/eosNodes.ts</title>
<path fill="none" stroke="#000000" d="M181.8997,-60.5C188.6752,-60.5 196.1123,-60.5 203.4588,-60.5"/>
<polygon fill="#000000" stroke="#000000" points="203.7061,-64.0001 213.7061,-60.5 203.706,-57.0001 203.7061,-64.0001"/>
</g>
<!-- src/helpers/chain.ts -->
<g id="node4" class="node">
<title>src/helpers/chain.ts</title>
<g id="a_node4"><a xlink:href="src/helpers/chain.ts" xlink:title="chain.ts">
<path fill="#ddfeff" stroke="#000000" d="M552.9925,-205C552.9925,-205 510.3258,-205 510.3258,-205 507.4925,-205 504.6592,-202.1667 504.6592,-199.3333 504.6592,-199.3333 504.6592,-193.6667 504.6592,-193.6667 504.6592,-190.8333 507.4925,-188 510.3258,-188 510.3258,-188 552.9925,-188 552.9925,-188 555.8258,-188 558.6592,-190.8333 558.6592,-193.6667 558.6592,-193.6667 558.6592,-199.3333 558.6592,-199.3333 558.6592,-202.1667 555.8258,-205 552.9925,-205"/>
<text text-anchor="middle" x="531.6592" y="-193.8" font-family="Helvetica,sans-Serif" font-size="9.00" fill="#000000">chain.ts</text>
</a>
</g>
</g>
<!-- src/types/libs.ts -->
<g id="node23" class="node">
<title>src/types/libs.ts</title>
<g id="a_node23"><a xlink:href="src/types/libs.ts" xlink:title="libs.ts">
<path fill="#ddfeff" stroke="#000000" d="M838.5924,-335C838.5924,-335 795.9257,-335 795.9257,-335 793.0924,-335 790.259,-332.1667 790.259,-329.3333 790.259,-329.3333 790.259,-323.6667 790.259,-323.6667 790.259,-320.8333 793.0924,-318 795.9257,-318 795.9257,-318 838.5924,-318 838.5924,-318 841.4257,-318 844.259,-320.8333 844.259,-323.6667 844.259,-323.6667 844.259,-329.3333 844.259,-329.3333 844.259,-332.1667 841.4257,-335 838.5924,-335"/>
<text text-anchor="middle" x="817.259" y="-323.8" font-family="Helvetica,sans-Serif" font-size="9.00" fill="#000000">libs.ts</text>
</a>
</g>
</g>
<!-- src/helpers/chain.ts&#45;&gt;src/types/libs.ts -->
<g id="edge2" class="edge">
<title>src/helpers/chain.ts&#45;&gt;src/types/libs.ts</title>
<path fill="none" stroke="#000000" d="M558.8364,-201.5585C587.1621,-207.437 632.4014,-218.5531 668.7209,-235.5 723.9735,-261.2811 728.411,-283.901 782.259,-312.5 782.9309,-312.8569 783.614,-313.2102 784.3058,-313.5595"/>
<polygon fill="#000000" stroke="#000000" points="783.0506,-316.8349 793.5972,-317.8447 785.9823,-310.4783 783.0506,-316.8349"/>
</g>
<!-- src/utils/log.ts -->
<g id="node26" class="node">
<title>src/utils/log.ts</title>
<g id="a_node26"><a xlink:href="src/utils/log.ts" xlink:title="log.ts">
<path fill="#ddfeff" stroke="#000000" d="M642.7828,-322C642.7828,-322 600.1161,-322 600.1161,-322 597.2828,-322 594.4495,-319.1667 594.4495,-316.3333 594.4495,-316.3333 594.4495,-310.6667 594.4495,-310.6667 594.4495,-307.8333 597.2828,-305 600.1161,-305 600.1161,-305 642.7828,-305 642.7828,-305 645.6161,-305 648.4495,-307.8333 648.4495,-310.6667 648.4495,-310.6667 648.4495,-316.3333 648.4495,-316.3333 648.4495,-319.1667 645.6161,-322 642.7828,-322"/>
<text text-anchor="middle" x="621.4495" y="-310.8" font-family="Helvetica,sans-Serif" font-size="9.00" fill="#000000">log.ts</text>
</a>
</g>
</g>
<!-- src/helpers/chain.ts&#45;&gt;src/utils/log.ts -->
<g id="edge3" class="edge">
<title>src/helpers/chain.ts&#45;&gt;src/utils/log.ts</title>
<path fill="none" stroke="#000000" d="M558.9796,-203.2531C561.7441,-204.9007 564.2412,-206.9503 566.178,-209.5 578.3236,-225.4889 561.4628,-283.9602 574.178,-299.5 576.9829,-302.9281 580.5856,-305.5423 584.5487,-307.5316"/>
<polygon fill="#000000" stroke="#000000" points="583.6518,-310.9319 594.2448,-311.1281 586.0862,-304.3688 583.6518,-310.9319"/>
</g>
<!-- src/utils/wait.ts -->
<g id="node27" class="node">
<title>src/utils/wait.ts</title>
<g id="a_node27"><a xlink:href="src/utils/wait.ts" xlink:title="wait.ts">
<path fill="#ddfeff" stroke="#000000" d="M642.7828,-293C642.7828,-293 600.1161,-293 600.1161,-293 597.2828,-293 594.4495,-290.1667 594.4495,-287.3333 594.4495,-287.3333 594.4495,-281.6667 594.4495,-281.6667 594.4495,-278.8333 597.2828,-276 600.1161,-276 600.1161,-276 642.7828,-276 642.7828,-276 645.6161,-276 648.4495,-278.8333 648.4495,-281.6667 648.4495,-281.6667 648.4495,-287.3333 648.4495,-287.3333 648.4495,-290.1667 645.6161,-293 642.7828,-293"/>
<text text-anchor="middle" x="621.4495" y="-281.8" font-family="Helvetica,sans-Serif" font-size="9.00" fill="#000000">wait.ts</text>
</a>
</g>
</g>
<!-- src/helpers/chain.ts&#45;&gt;src/utils/wait.ts -->
<g id="edge4" class="edge">
<title>src/helpers/chain.ts&#45;&gt;src/utils/wait.ts</title>
<path fill="none" stroke="#000000" d="M538.1262,-205.1538C545.5609,-215.3708 557.8128,-233.0577 566.178,-249.5 570.7069,-258.4018 566.8523,-263.7112 574.178,-270.5 577.1993,-273.2998 580.7552,-275.5417 584.5379,-277.3366"/>
<polygon fill="#000000" stroke="#000000" points="583.64,-280.7367 594.2329,-280.9402 586.0789,-274.1753 583.64,-280.7367"/>
</g>
<!-- src/helpers/kh.ts -->
<g id="node5" class="node">
<title>src/helpers/kh.ts</title>
<g id="a_node5"><a xlink:href="src/helpers/kh.ts" xlink:title="kh.ts">
<path fill="#ddfeff" stroke="#000000" d="M552.9925,-176C552.9925,-176 510.3258,-176 510.3258,-176 507.4925,-176 504.6592,-173.1667 504.6592,-170.3333 504.6592,-170.3333 504.6592,-164.6667 504.6592,-164.6667 504.6592,-161.8333 507.4925,-159 510.3258,-159 510.3258,-159 552.9925,-159 552.9925,-159 555.8258,-159 558.6592,-161.8333 558.6592,-164.6667 558.6592,-164.6667 558.6592,-170.3333 558.6592,-170.3333 558.6592,-173.1667 555.8258,-176 552.9925,-176"/>
<text text-anchor="middle" x="531.6592" y="-164.8" font-family="Helvetica,sans-Serif" font-size="9.00" fill="#000000">kh.ts</text>
</a>
</g>
</g>
<!-- src/helpers/khRes.ts -->
<g id="node6" class="node">
<title>src/helpers/khRes.ts</title>
<g id="a_node6"><a xlink:href="src/helpers/khRes.ts" xlink:title="khRes.ts">
<path fill="#ddfeff" stroke="#000000" d="M642.7828,-176C642.7828,-176 600.1161,-176 600.1161,-176 597.2828,-176 594.4495,-173.1667 594.4495,-170.3333 594.4495,-170.3333 594.4495,-164.6667 594.4495,-164.6667 594.4495,-161.8333 597.2828,-159 600.1161,-159 600.1161,-159 642.7828,-159 642.7828,-159 645.6161,-159 648.4495,-161.8333 648.4495,-164.6667 648.4495,-164.6667 648.4495,-170.3333 648.4495,-170.3333 648.4495,-173.1667 645.6161,-176 642.7828,-176"/>
<text text-anchor="middle" x="621.4495" y="-164.8" font-family="Helvetica,sans-Serif" font-size="9.00" fill="#000000">khRes.ts</text>
</a>
</g>
</g>
<!-- src/helpers/kh.ts&#45;&gt;src/helpers/khRes.ts -->
<g id="edge6" class="edge">
<title>src/helpers/kh.ts&#45;&gt;src/helpers/khRes.ts</title>
<path fill="none" stroke="#000000" d="M559.0871,-167.5C566.9199,-167.5 575.593,-167.5 583.9187,-167.5"/>
<polygon fill="#000000" stroke="#000000" points="584.1895,-171.0001 594.1895,-167.5 584.1895,-164.0001 584.1895,-171.0001"/>
</g>
<!-- src/model/transcalPayload.ts -->
<g id="node11" class="node">
<title>src/model/transcalPayload.ts</title>
<g id="a_node11"><a xlink:href="src/model/transcalPayload.ts" xlink:title="transcalPayload.ts">
<path fill="#ddfeff" stroke="#000000" d="M760.3626,-88C760.3626,-88 682.6174,-88 682.6174,-88 679.7841,-88 676.9507,-85.1667 676.9507,-82.3333 676.9507,-82.3333 676.9507,-76.6667 676.9507,-76.6667 676.9507,-73.8333 679.7841,-71 682.6174,-71 682.6174,-71 760.3626,-71 760.3626,-71 763.1959,-71 766.0293,-73.8333 766.0293,-76.6667 766.0293,-76.6667 766.0293,-82.3333 766.0293,-82.3333 766.0293,-85.1667 763.1959,-88 760.3626,-88"/>
<text text-anchor="middle" x="721.49" y="-76.8" font-family="Helvetica,sans-Serif" font-size="9.00" fill="#000000">transcalPayload.ts</text>
</a>
</g>
</g>
<!-- src/helpers/kh.ts&#45;&gt;src/model/transcalPayload.ts -->
<g id="edge5" class="edge">
<title>src/helpers/kh.ts&#45;&gt;src/model/transcalPayload.ts</title>
<path fill="none" stroke="#000000" d="M555.2806,-158.8799C561.3756,-156.8891 567.9693,-154.9365 574.178,-153.5 594.8394,-148.7196 653.461,-155.2269 668.7209,-140.5 681.7863,-127.891 667.758,-114.1792 678.132,-96.1869"/>
<polygon fill="#000000" stroke="#000000" points="680.939,-98.2778 684.2222,-88.2045 675.3738,-94.0318 680.939,-98.2778"/>
</g>
<!-- src/model/asset.ts -->
<g id="node8" class="node">
<title>src/model/asset.ts</title>
<g id="a_node8"><a xlink:href="src/model/asset.ts" xlink:title="asset.ts">
<path fill="#ddfeff" stroke="#000000" d="M742.8233,-117C742.8233,-117 700.1567,-117 700.1567,-117 697.3233,-117 694.49,-114.1667 694.49,-111.3333 694.49,-111.3333 694.49,-105.6667 694.49,-105.6667 694.49,-102.8333 697.3233,-100 700.1567,-100 700.1567,-100 742.8233,-100 742.8233,-100 745.6567,-100 748.49,-102.8333 748.49,-105.6667 748.49,-105.6667 748.49,-111.3333 748.49,-111.3333 748.49,-114.1667 745.6567,-117 742.8233,-117"/>
<text text-anchor="middle" x="721.49" y="-105.8" font-family="Helvetica,sans-Serif" font-size="9.00" fill="#000000">asset.ts</text>
</a>
</g>
</g>
<!-- src/helpers/khRes.ts&#45;&gt;src/model/asset.ts -->
<g id="edge7" class="edge">
<title>src/helpers/khRes.ts&#45;&gt;src/model/asset.ts</title>
<path fill="none" stroke="#000000" d="M648.0845,-158.938C654.9911,-156.2958 662.2909,-153.1151 668.7209,-149.5 681.392,-142.376 694.3005,-132.4039 704.1787,-124.0782"/>
<polygon fill="#000000" stroke="#000000" points="706.735,-126.4942 711.9973,-117.2985 702.1491,-121.2055 706.735,-126.4942"/>
</g>
<!-- src/index.ts -->
<g id="node7" class="node">
<title>src/index.ts</title>
<g id="a_node7"><a xlink:href="src/index.ts" xlink:title="index.ts">
<path fill="#ddfeff" stroke="#000000" d="M75.3433,-149C75.3433,-149 32.6767,-149 32.6767,-149 29.8433,-149 27.01,-146.1667 27.01,-143.3333 27.01,-143.3333 27.01,-137.6667 27.01,-137.6667 27.01,-134.8333 29.8433,-132 32.6767,-132 32.6767,-132 75.3433,-132 75.3433,-132 78.1767,-132 81.01,-134.8333 81.01,-137.6667 81.01,-137.6667 81.01,-143.3333 81.01,-143.3333 81.01,-146.1667 78.1767,-149 75.3433,-149"/>
<text text-anchor="middle" x="54.01" y="-137.8" font-family="Helvetica,sans-Serif" font-size="9.00" fill="#000000">index.ts</text>
</a>
</g>
</g>
<!-- src/index.ts&#45;&gt;src/configs/index.ts -->
<g id="edge8" class="edge">
<title>src/index.ts&#45;&gt;src/configs/index.ts</title>
<path fill="none" stroke="#000000" d="M57.5937,-131.5403C63.8941,-116.9857 78.3742,-88.3422 100.02,-73.5 105.3089,-69.8735 111.4849,-67.252 117.7458,-65.3586"/>
<polygon fill="#000000" stroke="#000000" points="118.6681,-68.736 127.5387,-62.9426 116.9914,-61.9398 118.6681,-68.736"/>
</g>
<!-- src/model/index.ts -->
<g id="node10" class="node">
<title>src/model/index.ts</title>
<g id="a_node10"><a xlink:href="src/model/index.ts" xlink:title="index.ts">
<path fill="#ddfeff" stroke="#000000" d="M642.7828,-96C642.7828,-96 600.1161,-96 600.1161,-96 597.2828,-96 594.4495,-93.1667 594.4495,-90.3333 594.4495,-90.3333 594.4495,-84.6667 594.4495,-84.6667 594.4495,-81.8333 597.2828,-79 600.1161,-79 600.1161,-79 642.7828,-79 642.7828,-79 645.6161,-79 648.4495,-81.8333 648.4495,-84.6667 648.4495,-84.6667 648.4495,-90.3333 648.4495,-90.3333 648.4495,-93.1667 645.6161,-96 642.7828,-96"/>
<text text-anchor="middle" x="621.4495" y="-84.8" font-family="Helvetica,sans-Serif" font-size="9.00" fill="#000000">index.ts</text>
</a>
</g>
</g>
<!-- src/index.ts&#45;&gt;src/model/index.ts -->
<g id="edge9" class="edge">
<title>src/index.ts&#45;&gt;src/model/index.ts</title>
<path fill="none" stroke="#000000" d="M81.1541,-131.9185C118.1936,-120.9883 186.8302,-103.5 246.8191,-103.5 246.8191,-103.5 246.8191,-103.5 441.8933,-103.5 491.3142,-103.5 548.0857,-97.4121 584.3349,-92.7468"/>
<polygon fill="#000000" stroke="#000000" points="584.9862,-96.1913 594.4429,-91.414 584.0711,-89.2513 584.9862,-96.1913"/>
</g>
<!-- src/multiSourcePlayer.ts -->
<g id="node12" class="node">
<title>src/multiSourcePlayer.ts</title>
<g id="a_node12"><a xlink:href="src/multiSourcePlayer.ts" xlink:title="multiSourcePlayer.ts">
<path fill="#ddfeff" stroke="#000000" d="M392.4793,-171C392.4793,-171 305.7384,-171 305.7384,-171 302.9051,-171 300.0718,-168.1667 300.0718,-165.3333 300.0718,-165.3333 300.0718,-159.6667 300.0718,-159.6667 300.0718,-156.8333 302.9051,-154 305.7384,-154 305.7384,-154 392.4793,-154 392.4793,-154 395.3127,-154 398.146,-156.8333 398.146,-159.6667 398.146,-159.6667 398.146,-165.3333 398.146,-165.3333 398.146,-168.1667 395.3127,-171 392.4793,-171"/>
<text text-anchor="middle" x="349.1089" y="-159.8" font-family="Helvetica,sans-Serif" font-size="9.00" fill="#000000">multiSourcePlayer.ts</text>
</a>
</g>
</g>
<!-- src/index.ts&#45;&gt;src/multiSourcePlayer.ts -->
<g id="edge10" class="edge">
<title>src/index.ts&#45;&gt;src/multiSourcePlayer.ts</title>
<path fill="none" stroke="#000000" d="M81.2531,-142.9346C87.4227,-143.4675 93.9456,-144.0165 100.02,-144.5 164.9181,-149.6656 239.3801,-154.9641 289.8594,-158.4625"/>
<polygon fill="#000000" stroke="#000000" points="289.7225,-161.9613 299.9401,-159.1593 290.2053,-154.9779 289.7225,-161.9613"/>
</g>
<!-- src/outOfBox/index.ts -->
<g id="node13" class="node">
<title>src/outOfBox/index.ts</title>
<g id="a_node13"><a xlink:href="src/outOfBox/index.ts" xlink:title="index.ts">
<path fill="#ddfeff" stroke="#000000" d="M176.1173,-251C176.1173,-251 133.4506,-251 133.4506,-251 130.6173,-251 127.7839,-248.1667 127.7839,-245.3333 127.7839,-245.3333 127.7839,-239.6667 127.7839,-239.6667 127.7839,-236.8333 130.6173,-234 133.4506,-234 133.4506,-234 176.1173,-234 176.1173,-234 178.9506,-234 181.7839,-236.8333 181.7839,-239.6667 181.7839,-239.6667 181.7839,-245.3333 181.7839,-245.3333 181.7839,-248.1667 178.9506,-251 176.1173,-251"/>
<text text-anchor="middle" x="154.7839" y="-239.8" font-family="Helvetica,sans-Serif" font-size="9.00" fill="#000000">index.ts</text>
</a>
</g>
</g>
<!-- src/index.ts&#45;&gt;src/outOfBox/index.ts -->
<g id="edge11" class="edge">
<title>src/index.ts&#45;&gt;src/outOfBox/index.ts</title>
<path fill="none" stroke="#000000" d="M55.8531,-149.2736C60.1559,-167.4724 72.6454,-209.3874 100.02,-230.5 105.1791,-234.4789 111.3843,-237.1975 117.736,-239.0428"/>
<polygon fill="#000000" stroke="#000000" points="117.1848,-242.506 127.7084,-241.2793 118.7167,-235.6757 117.1848,-242.506"/>
</g>
<!-- src/player.ts -->
<g id="node20" class="node">
<title>src/player.ts</title>
<g id="a_node20"><a xlink:href="src/player.ts" xlink:title="player.ts">
<path fill="#ddfeff" stroke="#000000" d="M463.2266,-174C463.2266,-174 420.56,-174 420.56,-174 417.7266,-174 414.8933,-171.1667 414.8933,-168.3333 414.8933,-168.3333 414.8933,-162.6667 414.8933,-162.6667 414.8933,-159.8333 417.7266,-157 420.56,-157 420.56,-157 463.2266,-157 463.2266,-157 466.06,-157 468.8933,-159.8333 468.8933,-162.6667 468.8933,-162.6667 468.8933,-168.3333 468.8933,-168.3333 468.8933,-171.1667 466.06,-174 463.2266,-174"/>
<text text-anchor="middle" x="441.8933" y="-162.8" font-family="Helvetica,sans-Serif" font-size="9.00" fill="#000000">player.ts</text>
</a>
</g>
</g>
<!-- src/index.ts&#45;&gt;src/player.ts -->
<g id="edge12" class="edge">
<title>src/index.ts&#45;&gt;src/player.ts</title>
<path fill="none" stroke="#000000" d="M81.1286,-137.9819C139.6953,-133.2273 282.0906,-125.3563 398.1274,-148.5 403.4858,-149.5687 409.0387,-151.2433 414.3169,-153.1332"/>
<polygon fill="#000000" stroke="#000000" points="413.4174,-156.5398 424.0051,-156.9302 415.9717,-150.0225 413.4174,-156.5398"/>
</g>
<!-- src/model/eosProvider.ts -->
<g id="node9" class="node">
<title>src/model/eosProvider.ts</title>
<g id="a_node9"><a xlink:href="src/model/eosProvider.ts" xlink:title="eosProvider.ts">
<path fill="#ddfeff" stroke="#000000" d="M752.3556,-59C752.3556,-59 690.6244,-59 690.6244,-59 687.7911,-59 684.9578,-56.1667 684.9578,-53.3333 684.9578,-53.3333 684.9578,-47.6667 684.9578,-47.6667 684.9578,-44.8333 687.7911,-42 690.6244,-42 690.6244,-42 752.3556,-42 752.3556,-42 755.1889,-42 758.0222,-44.8333 758.0222,-47.6667 758.0222,-47.6667 758.0222,-53.3333 758.0222,-53.3333 758.0222,-56.1667 755.1889,-59 752.3556,-59"/>
<text text-anchor="middle" x="721.49" y="-47.8" font-family="Helvetica,sans-Serif" font-size="9.00" fill="#000000">eosProvider.ts</text>
</a>
</g>
</g>
<!-- src/model/eosProvider.ts&#45;&gt;src/types/libs.ts -->
<g id="edge13" class="edge">
<title>src/model/eosProvider.ts&#45;&gt;src/types/libs.ts</title>
<path fill="none" stroke="#000000" d="M758.081,-54.4279C764.35,-56.7436 770.155,-60.2459 774.259,-65.5 791.1619,-87.1398 766.4988,-290.0144 782.259,-312.5 782.3224,-312.5904 782.3865,-312.6803 782.4512,-312.7696"/>
<polygon fill="#000000" stroke="#000000" points="780.2563,-315.5009 790.0627,-319.5115 784.8977,-310.2609 780.2563,-315.5009"/>
</g>
<!-- src/model/index.ts&#45;&gt;src/model/asset.ts -->
<g id="edge14" class="edge">
<title>src/model/index.ts&#45;&gt;src/model/asset.ts</title>
<path fill="none" stroke="#000000" d="M648.5219,-93.1829C659.5318,-95.494 672.4355,-98.2027 684.305,-100.6943"/>
<polygon fill="#000000" stroke="#000000" points="683.8902,-104.1835 694.3959,-102.8126 685.3283,-97.3328 683.8902,-104.1835"/>
</g>
<!-- src/model/index.ts&#45;&gt;src/model/eosProvider.ts -->
<g id="edge15" class="edge">
<title>src/model/index.ts&#45;&gt;src/model/eosProvider.ts</title>
<path fill="none" stroke="#000000" d="M642.0796,-78.973C652.4258,-74.7774 665.1803,-69.7265 676.7209,-65.5 679.4631,-64.4958 682.3089,-63.4806 685.1767,-62.4769"/>
<polygon fill="#000000" stroke="#000000" points="686.57,-65.6991 694.8915,-59.1415 684.2968,-59.0785 686.57,-65.6991"/>
</g>
<!-- src/model/index.ts&#45;&gt;src/model/transcalPayload.ts -->
<g id="edge16" class="edge">
<title>src/model/index.ts&#45;&gt;src/model/transcalPayload.ts</title>
<path fill="none" stroke="#000000" d="M648.5219,-85.3351C654.0824,-84.8904 660.1261,-84.4071 666.2755,-83.9154"/>
<polygon fill="#000000" stroke="#000000" points="666.9688,-87.3712 676.658,-83.0851 666.4108,-80.3935 666.9688,-87.3712"/>
</g>
<!-- src/multiSourcePlayer.ts&#45;&gt;src/player.ts -->
<g id="edge17" class="edge">
<title>src/multiSourcePlayer.ts&#45;&gt;src/player.ts</title>
<path fill="none" stroke="#000000" d="M398.218,-164.0878C400.2176,-164.1525 402.2104,-164.2169 404.1815,-164.2807"/>
<polygon fill="#000000" stroke="#000000" points="404.3236,-167.787 414.4315,-164.6121 404.5499,-160.7907 404.3236,-167.787"/>
</g>
<!-- src/outOfBox/readingPlayer.ts -->
<g id="node14" class="node">
<title>src/outOfBox/readingPlayer.ts</title>
<g id="a_node14"><a xlink:href="src/outOfBox/readingPlayer.ts" xlink:title="readingPlayer.ts">
<path fill="#ddfeff" stroke="#000000" d="M281.1962,-251C281.1962,-251 212.442,-251 212.442,-251 209.6087,-251 206.7753,-248.1667 206.7753,-245.3333 206.7753,-245.3333 206.7753,-239.6667 206.7753,-239.6667 206.7753,-236.8333 209.6087,-234 212.442,-234 212.442,-234 281.1962,-234 281.1962,-234 284.0295,-234 286.8629,-236.8333 286.8629,-239.6667 286.8629,-239.6667 286.8629,-245.3333 286.8629,-245.3333 286.8629,-248.1667 284.0295,-251 281.1962,-251"/>
<text text-anchor="middle" x="246.8191" y="-239.8" font-family="Helvetica,sans-Serif" font-size="9.00" fill="#000000">readingPlayer.ts</text>
</a>
</g>
</g>
<!-- src/outOfBox/index.ts&#45;&gt;src/outOfBox/readingPlayer.ts -->
<g id="edge18" class="edge">
<title>src/outOfBox/index.ts&#45;&gt;src/outOfBox/readingPlayer.ts</title>
<path fill="none" stroke="#000000" d="M181.8997,-242.5C186.4962,-242.5 191.3972,-242.5 196.3679,-242.5"/>
<polygon fill="#000000" stroke="#000000" points="196.5934,-246.0001 206.5934,-242.5 196.5934,-239.0001 196.5934,-246.0001"/>
</g>
<!-- src/outOfBox/signPlayer/index.ts -->
<g id="node17" class="node">
<title>src/outOfBox/signPlayer/index.ts</title>
<g id="a_node17"><a xlink:href="src/outOfBox/signPlayer/index.ts" xlink:title="index.ts">
<path fill="#ddfeff" stroke="#000000" d="M268.1524,-285C268.1524,-285 225.4858,-285 225.4858,-285 222.6524,-285 219.8191,-282.1667 219.8191,-279.3333 219.8191,-279.3333 219.8191,-273.6667 219.8191,-273.6667 219.8191,-270.8333 222.6524,-268 225.4858,-268 225.4858,-268 268.1524,-268 268.1524,-268 270.9858,-268 273.8191,-270.8333 273.8191,-273.6667 273.8191,-273.6667 273.8191,-279.3333 273.8191,-279.3333 273.8191,-282.1667 270.9858,-285 268.1524,-285"/>
<text text-anchor="middle" x="246.8191" y="-273.8" font-family="Helvetica,sans-Serif" font-size="9.00" fill="#000000">index.ts</text>
</a>
</g>
</g>
<!-- src/outOfBox/index.ts&#45;&gt;src/outOfBox/signPlayer/index.ts -->
<g id="edge19" class="edge">
<title>src/outOfBox/index.ts&#45;&gt;src/outOfBox/signPlayer/index.ts</title>
<path fill="none" stroke="#000000" d="M173.7551,-251.1677C183.4606,-255.4468 195.5235,-260.529 206.5479,-264.5 207.5774,-264.8708 208.6246,-265.2394 209.6837,-265.6048"/>
<polygon fill="#000000" stroke="#000000" points="208.7968,-268.997 219.3894,-268.7772 210.9717,-262.3434 208.7968,-268.997"/>
</g>
<!-- src/outOfBox/readingPlayer.ts&#45;&gt;src/multiSourcePlayer.ts -->
<g id="edge20" class="edge">
<title>src/outOfBox/readingPlayer.ts&#45;&gt;src/multiSourcePlayer.ts</title>
<path fill="none" stroke="#000000" d="M281.4533,-233.9168C283.6741,-232.8979 285.8226,-231.7631 287.8328,-230.5 308.5589,-217.4768 326.5273,-195.5077 337.5531,-180.0726"/>
<polygon fill="#000000" stroke="#000000" points="340.7034,-181.6683 343.4837,-171.4448 334.9347,-177.7031 340.7034,-181.6683"/>
</g>
<!-- src/outOfBox/readingPlayer.ts&#45;&gt;src/types/libs.ts -->
<g id="edge21" class="edge">
<title>src/outOfBox/readingPlayer.ts&#45;&gt;src/types/libs.ts</title>
<path fill="none" stroke="#000000" d="M281.2569,-251.0182C283.6934,-252.5528 285.9329,-254.3635 287.8328,-256.5 305.0518,-275.8639 283.9281,-293.2457 300.0903,-313.5 343.449,-367.8364 372.3778,-379.5 441.8933,-379.5 441.8933,-379.5 441.8933,-379.5 621.4495,-379.5 690.3409,-379.5 716.4707,-391.0039 774.259,-353.5 779.6358,-350.0105 777.3312,-345.5991 782.259,-341.5 782.6275,-341.1935 783.0032,-340.8923 783.3854,-340.5964"/>
<polygon fill="#000000" stroke="#000000" points="785.4969,-343.4042 792.1249,-335.1385 781.789,-337.4669 785.4969,-343.4042"/>
</g>
<!-- src/outOfBox/readingPlayer.ts&#45;&gt;src/utils/log.ts -->
<g id="edge22" class="edge">
<title>src/outOfBox/readingPlayer.ts&#45;&gt;src/utils/log.ts</title>
<path fill="none" stroke="#000000" d="M287.0566,-239.0942C348.0047,-234.8571 459.709,-230.9887 488.6592,-256.5 503.2435,-269.352 482.4264,-286.2597 496.6592,-299.5 519.73,-320.962 556.5281,-322.6522 584.1988,-320.0552"/>
<polygon fill="#000000" stroke="#000000" points="584.7793,-323.5114 594.3094,-318.8823 583.9726,-316.5581 584.7793,-323.5114"/>
</g>
<!-- src/outOfBox/readingPlayer.ts&#45;&gt;src/utils/wait.ts -->
<g id="edge23" class="edge">
<title>src/outOfBox/readingPlayer.ts&#45;&gt;src/utils/wait.ts</title>
<path fill="none" stroke="#000000" d="M269.2759,-233.9679C315.1245,-218.121 420.8779,-189.7884 488.6592,-236.5 496.8831,-242.1675 489.0846,-250.9901 496.6592,-257.5 520.7013,-278.1627 556.8273,-284.1653 584.0324,-285.439"/>
<polygon fill="#000000" stroke="#000000" points="584.2541,-288.9462 594.3456,-285.7195 584.4445,-281.9488 584.2541,-288.9462"/>
</g>
<!-- src/outOfBox/scatterPlayer/db.ts -->
<g id="node15" class="node">
<title>src/outOfBox/scatterPlayer/db.ts</title>
<g id="a_node15"><a xlink:href="src/outOfBox/scatterPlayer/db.ts" xlink:title="db.ts">
<path fill="#ddfeff" stroke="#000000" d="M268.1524,-344C268.1524,-344 225.4858,-344 225.4858,-344 222.6524,-344 219.8191,-341.1667 219.8191,-338.3333 219.8191,-338.3333 219.8191,-332.6667 219.8191,-332.6667 219.8191,-329.8333 222.6524,-327 225.4858,-327 225.4858,-327 268.1524,-327 268.1524,-327 270.9858,-327 273.8191,-329.8333 273.8191,-332.6667 273.8191,-332.6667 273.8191,-338.3333 273.8191,-338.3333 273.8191,-341.1667 270.9858,-344 268.1524,-344"/>
<text text-anchor="middle" x="246.8191" y="-332.8" font-family="Helvetica,sans-Serif" font-size="9.00" fill="#000000">db.ts</text>
</a>
</g>
</g>
<!-- src/outOfBox/scatterPlayer/scatterPlayer.ts -->
<g id="node16" class="node">
<title>src/outOfBox/scatterPlayer/scatterPlayer.ts</title>
<g id="a_node16"><a xlink:href="src/outOfBox/scatterPlayer/scatterPlayer.ts" xlink:title="scatterPlayer.ts">
<path fill="#ddfeff" stroke="#000000" d="M187.6465,-344C187.6465,-344 121.9213,-344 121.9213,-344 119.088,-344 116.2547,-341.1667 116.2547,-338.3333 116.2547,-338.3333 116.2547,-332.6667 116.2547,-332.6667 116.2547,-329.8333 119.088,-327 121.9213,-327 121.9213,-327 187.6465,-327 187.6465,-327 190.4799,-327 193.3132,-329.8333 193.3132,-332.6667 193.3132,-332.6667 193.3132,-338.3333 193.3132,-338.3333 193.3132,-341.1667 190.4799,-344 187.6465,-344"/>
<text text-anchor="middle" x="154.7839" y="-332.8" font-family="Helvetica,sans-Serif" font-size="9.00" fill="#000000">scatterPlayer.ts</text>
</a>
</g>
</g>
<!-- src/outOfBox/scatterPlayer/scatterPlayer.ts&#45;&gt;src/outOfBox/scatterPlayer/db.ts -->
<g id="edge28" class="edge">
<title>src/outOfBox/scatterPlayer/scatterPlayer.ts&#45;&gt;src/outOfBox/scatterPlayer/db.ts</title>
<path fill="none" stroke="#000000" d="M193.5484,-335.5C198.7404,-335.5 204.0588,-335.5 209.2301,-335.5"/>
<polygon fill="#000000" stroke="#000000" points="209.5509,-339.0001 219.5509,-335.5 209.5509,-332.0001 209.5509,-339.0001"/>
</g>
<!-- src/outOfBox/scatterPlayer/scatterPlayer.ts&#45;&gt;src/player.ts -->
<g id="edge24" class="edge">
<title>src/outOfBox/scatterPlayer/scatterPlayer.ts&#45;&gt;src/player.ts</title>
<path fill="none" stroke="#000000" d="M190.2788,-326.7579C191.4678,-325.7819 192.5667,-324.6998 193.5479,-323.5 211.7877,-301.1969 186.0536,-214.7512 206.5479,-194.5 236.9497,-164.4587 356.0627,-185.0701 398.1274,-177.5 400.3325,-177.1032 402.5878,-176.6464 404.8548,-176.148"/>
<polygon fill="#000000" stroke="#000000" points="405.8552,-179.507 414.7508,-173.7521 404.208,-172.7035 405.8552,-179.507"/>
</g>
<!-- src/outOfBox/scatterPlayer/scatterPlayer.ts&#45;&gt;src/types/libs.ts -->
<g id="edge25" class="edge">
<title>src/outOfBox/scatterPlayer/scatterPlayer.ts&#45;&gt;src/types/libs.ts</title>
<path fill="none" stroke="#000000" d="M171.4384,-344.0581C204.4278,-360.1918 280.8061,-393.5 349.1089,-393.5 349.1089,-393.5 349.1089,-393.5 621.4495,-393.5 690.1298,-393.5 722.8751,-416.0706 774.259,-370.5 782.5429,-363.1533 776.5639,-354.995 783.6331,-343.0912"/>
<polygon fill="#000000" stroke="#000000" points="786.4555,-345.1658 789.965,-335.1691 780.9874,-340.7953 786.4555,-345.1658"/>
</g>
<!-- src/outOfBox/scatterPlayer/scatterPlayer.ts&#45;&gt;src/utils/log.ts -->
<g id="edge26" class="edge">
<title>src/outOfBox/scatterPlayer/scatterPlayer.ts&#45;&gt;src/utils/log.ts</title>
<path fill="none" stroke="#000000" d="M189.9081,-326.9847C191.2346,-325.9507 192.4595,-324.7939 193.5479,-323.5 222.6803,-288.8634 172.5634,-252.3906 206.5479,-222.5 230.0969,-201.7878 466.091,-209.7231 488.6592,-231.5 507.7016,-249.8748 478.0235,-271.7128 496.6592,-290.5 507.6507,-301.5808 550.8423,-297.5994 566.178,-300.5 572.0727,-301.615 578.2885,-302.9345 584.3395,-304.2984"/>
<polygon fill="#000000" stroke="#000000" points="583.749,-307.7543 594.2815,-306.6071 585.3325,-300.9357 583.749,-307.7543"/>
</g>
<!-- src/outOfBox/scatterPlayer/scatterPlayer.ts&#45;&gt;src/utils/wait.ts -->
<g id="edge27" class="edge">
<title>src/outOfBox/scatterPlayer/scatterPlayer.ts&#45;&gt;src/utils/wait.ts</title>
<path fill="none" stroke="#000000" d="M190.2621,-326.7441C191.4556,-325.7719 192.56,-324.6943 193.5479,-323.5 210.081,-303.5126 187.3044,-224.8933 206.5479,-207.5 218.1751,-196.9906 476.6491,-198.4303 488.6592,-208.5 502.552,-220.1483 483.4947,-236.0345 496.6592,-248.5 519.3252,-269.9626 539.7777,-241.8441 566.178,-258.5 571.5991,-261.9202 569.019,-266.6959 574.178,-270.5 577.4179,-272.889 581.0629,-274.8727 584.8547,-276.5195"/>
<polygon fill="#000000" stroke="#000000" points="583.8412,-279.8743 594.4357,-279.9576 586.2055,-273.2856 583.8412,-279.8743"/>
</g>
<!-- src/outOfBox/signPlayer/signPlayer.ts -->
<g id="node19" class="node">
<title>src/outOfBox/signPlayer/signPlayer.ts</title>
<g id="a_node19"><a xlink:href="src/outOfBox/signPlayer/signPlayer.ts" xlink:title="signPlayer.ts">
<path fill="#ddfeff" stroke="#000000" d="M376.9715,-285C376.9715,-285 321.2463,-285 321.2463,-285 318.4129,-285 315.5796,-282.1667 315.5796,-279.3333 315.5796,-279.3333 315.5796,-273.6667 315.5796,-273.6667 315.5796,-270.8333 318.4129,-268 321.2463,-268 321.2463,-268 376.9715,-268 376.9715,-268 379.8049,-268 382.6382,-270.8333 382.6382,-273.6667 382.6382,-273.6667 382.6382,-279.3333 382.6382,-279.3333 382.6382,-282.1667 379.8049,-285 376.9715,-285"/>
<text text-anchor="middle" x="349.1089" y="-273.8" font-family="Helvetica,sans-Serif" font-size="9.00" fill="#000000">signPlayer.ts</text>
</a>
</g>
</g>
<!-- src/outOfBox/signPlayer/index.ts&#45;&gt;src/outOfBox/signPlayer/signPlayer.ts -->
<g id="edge29" class="edge">
<title>src/outOfBox/signPlayer/index.ts&#45;&gt;src/outOfBox/signPlayer/signPlayer.ts</title>
<path fill="none" stroke="#000000" d="M273.9623,-276.5C283.4619,-276.5 294.3901,-276.5 304.9178,-276.5"/>
<polygon fill="#000000" stroke="#000000" points="305.2443,-280.0001 315.2443,-276.5 305.2443,-273.0001 305.2443,-280.0001"/>
</g>
<!-- src/outOfBox/signPlayer/nodeStat.ts -->
<g id="node18" class="node">
<title>src/outOfBox/signPlayer/nodeStat.ts</title>
<g id="a_node18"><a xlink:href="src/outOfBox/signPlayer/nodeStat.ts" xlink:title="nodeStat.ts">
<path fill="#ddfeff" stroke="#000000" d="M466.7602,-285C466.7602,-285 417.0265,-285 417.0265,-285 414.1931,-285 411.3598,-282.1667 411.3598,-279.3333 411.3598,-279.3333 411.3598,-273.6667 411.3598,-273.6667 411.3598,-270.8333 414.1931,-268 417.0265,-268 417.0265,-268 466.7602,-268 466.7602,-268 469.5935,-268 472.4268,-270.8333 472.4268,-273.6667 472.4268,-273.6667 472.4268,-279.3333 472.4268,-279.3333 472.4268,-282.1667 469.5935,-285 466.7602,-285"/>
<text text-anchor="middle" x="441.8933" y="-273.8" font-family="Helvetica,sans-Serif" font-size="9.00" fill="#000000">nodeStat.ts</text>
</a>
</g>
</g>
<!-- src/outOfBox/signPlayer/nodeStat.ts&#45;&gt;src/utils/log.ts -->
<g id="edge30" class="edge">
<title>src/outOfBox/signPlayer/nodeStat.ts&#45;&gt;src/utils/log.ts</title>
<path fill="none" stroke="#000000" d="M447.7539,-285.0515C456.6628,-297.2018 474.8975,-318.9365 496.6592,-327.5 526.7468,-339.34 563.857,-332.7621 589.754,-325.133"/>
<polygon fill="#000000" stroke="#000000" points="590.948,-328.4264 599.4316,-322.0799 588.8419,-321.7507 590.948,-328.4264"/>
</g>
<!-- src/outOfBox/signPlayer/signPlayer.ts&#45;&gt;src/multiSourcePlayer.ts -->
<g id="edge31" class="edge">
<title>src/outOfBox/signPlayer/signPlayer.ts&#45;&gt;src/multiSourcePlayer.ts</title>
<path fill="none" stroke="#000000" d="M349.1089,-267.879C349.1089,-239.1131 349.1089,-210.3471 349.1089,-181.5811"/>
<polygon fill="#000000" stroke="#000000" points="352.609,-181.4062 349.1089,-171.4063 345.609,-181.4063 352.609,-181.4062"/>
</g>
<!-- src/outOfBox/signPlayer/signPlayer.ts&#45;&gt;src/outOfBox/signPlayer/nodeStat.ts -->
<g id="edge35" class="edge">
<title>src/outOfBox/signPlayer/signPlayer.ts&#45;&gt;src/outOfBox/signPlayer/nodeStat.ts</title>
<path fill="none" stroke="#000000" d="M382.8687,-276.5C388.7772,-276.5 394.9817,-276.5 401.0572,-276.5"/>
<polygon fill="#000000" stroke="#000000" points="401.0851,-280.0001 411.0851,-276.5 401.085,-273.0001 401.0851,-280.0001"/>
</g>
<!-- src/outOfBox/signPlayer/signPlayer.ts&#45;&gt;src/types/libs.ts -->
<g id="edge32" class="edge">
<title>src/outOfBox/signPlayer/signPlayer.ts&#45;&gt;src/types/libs.ts</title>
<path fill="none" stroke="#000000" d="M382.6742,-281.1842C388.2593,-283.0945 393.6744,-285.7668 398.1274,-289.5 408.6418,-298.3145 401.1594,-308.0721 411.1274,-317.5 453.0194,-357.1218 473.9979,-365.5 531.6592,-365.5 531.6592,-365.5 531.6592,-365.5 621.4495,-365.5 678.2464,-365.5 742.5562,-349.5222 781.4924,-338.0204"/>
<polygon fill="#000000" stroke="#000000" points="782.7382,-341.3003 791.2993,-335.0587 780.7144,-334.5993 782.7382,-341.3003"/>
</g>
<!-- src/outOfBox/signPlayer/signPlayer.ts&#45;&gt;src/utils/log.ts -->
<g id="edge33" class="edge">
<title>src/outOfBox/signPlayer/signPlayer.ts&#45;&gt;src/utils/log.ts</title>
<path fill="none" stroke="#000000" d="M382.8284,-284.636C387.9969,-286.1145 393.2369,-287.7489 398.1274,-289.5 443.4525,-305.7286 449.6167,-324.2661 496.6592,-334.5 526.8503,-341.0679 535.7885,-340.0786 566.178,-334.5 575.7143,-332.7494 585.7377,-329.4319 594.5906,-325.942"/>
<polygon fill="#000000" stroke="#000000" points="596.1273,-329.0931 604.0001,-322.0029 593.4242,-322.636 596.1273,-329.0931"/>
</g>
<!-- src/outOfBox/signPlayer/signPlayer.ts&#45;&gt;src/utils/wait.ts -->
<g id="edge34" class="edge">
<title>src/outOfBox/signPlayer/signPlayer.ts&#45;&gt;src/utils/wait.ts</title>
<path fill="none" stroke="#000000" d="M382.7042,-268.2268C394.1179,-265.5656 405.423,-263.1359 411.1274,-262.5 445.3739,-258.6826 457.2247,-248.3838 488.6592,-262.5 493.5413,-264.6924 491.8973,-269.0573 496.6592,-271.5 523.573,-285.3062 558.0078,-287.9593 583.8846,-287.4969"/>
<polygon fill="#000000" stroke="#000000" points="584.1764,-290.989 594.051,-287.1493 583.9372,-283.9931 584.1764,-290.989"/>
</g>
<!-- src/player.ts&#45;&gt;package.json -->
<g id="edge36" class="edge">
<title>src/player.ts&#45;&gt;package.json</title>
<path fill="none" stroke="#000000" d="M442.81,-156.8118C445.6777,-133.6348 456.4391,-69.3609 496.5825,-24.4854"/>
<polygon fill="#000000" stroke="#000000" points="499.1842,-26.8288 503.5637,-17.1815 494.1239,-21.9921 499.1842,-26.8288"/>
</g>
<!-- src/player.ts&#45;&gt;src/helpers/chain.ts -->
<g id="edge37" class="edge">
<title>src/player.ts&#45;&gt;src/helpers/chain.ts</title>
<path fill="none" stroke="#000000" d="M466.8981,-174.1352C476.236,-177.36 487.0124,-181.0815 497.0617,-184.552"/>
<polygon fill="#000000" stroke="#000000" points="496.1937,-187.955 506.7885,-187.9111 498.4788,-181.3385 496.1937,-187.955"/>
</g>
<!-- src/player.ts&#45;&gt;src/helpers/kh.ts -->
<g id="edge38" class="edge">
<title>src/player.ts&#45;&gt;src/helpers/kh.ts</title>
<path fill="none" stroke="#000000" d="M469.3138,-166.1109C477.1444,-166.2854 485.8152,-166.4786 494.1387,-166.664"/>
<polygon fill="#000000" stroke="#000000" points="494.3311,-170.1691 504.4066,-166.8928 494.4871,-163.1708 494.3311,-170.1691"/>
</g>
<!-- src/player.ts&#45;&gt;src/model/asset.ts -->
<g id="edge39" class="edge">
<title>src/player.ts&#45;&gt;src/model/asset.ts</title>
<path fill="none" stroke="#000000" d="M465.0986,-156.9183C474.754,-153.5986 486.1442,-150.0038 496.6592,-147.5 571.8957,-129.5851 592.8581,-136.5436 668.7209,-121.5 673.8531,-120.4823 679.2379,-119.2955 684.5251,-118.0606"/>
<polygon fill="#000000" stroke="#000000" points="685.58,-121.4066 694.48,-115.6585 683.938,-114.6019 685.58,-121.4066"/>
</g>
<!-- src/player.ts&#45;&gt;src/model/eosProvider.ts -->
<g id="edge40" class="edge">
<title>src/player.ts&#45;&gt;src/model/eosProvider.ts</title>
<path fill="none" stroke="#000000" d="M452.9587,-156.8141C463.5637,-148.9466 480.3279,-137.6711 496.6592,-131.5 514.7952,-124.647 654.7004,-115.8905 668.7209,-102.5 680.8879,-90.8798 665.4985,-78.0347 676.7209,-65.5 676.8645,-65.3397 677.0098,-65.1811 677.1568,-65.0242"/>
<polygon fill="#000000" stroke="#000000" points="679.0614,-67.9792 684.7548,-59.0441 674.7321,-62.4785 679.0614,-67.9792"/>
</g>
<!-- src/utils/eventHandler.ts -->
<g id="node25" class="node">
<title>src/utils/eventHandler.ts</title>
<g id="a_node25"><a xlink:href="src/utils/eventHandler.ts" xlink:title="eventHandler.ts">
<path fill="#ddfeff" stroke="#000000" d="M654.8271,-264C654.8271,-264 588.0718,-264 588.0718,-264 585.2385,-264 582.4052,-261.1667 582.4052,-258.3333 582.4052,-258.3333 582.4052,-252.6667 582.4052,-252.6667 582.4052,-249.8333 585.2385,-247 588.0718,-247 588.0718,-247 654.8271,-247 654.8271,-247 657.6604,-247 660.4938,-249.8333 660.4938,-252.6667 660.4938,-252.6667 660.4938,-258.3333 660.4938,-258.3333 660.4938,-261.1667 657.6604,-264 654.8271,-264"/>
<text text-anchor="middle" x="621.4495" y="-252.8" font-family="Helvetica,sans-Serif" font-size="9.00" fill="#000000">eventHandler.ts</text>
</a>
</g>
</g>
<!-- src/player.ts&#45;&gt;src/utils/eventHandler.ts -->
<g id="edge41" class="edge">
<title>src/player.ts&#45;&gt;src/utils/eventHandler.ts</title>
<path fill="none" stroke="#000000" d="M463.3464,-174.1241C472.4736,-178.8394 482.4289,-185.5672 488.6592,-194.5 498.7814,-209.013 483.9746,-221.1635 496.6592,-233.5 502.2268,-238.9149 539.6248,-245.0502 572.0419,-249.4635"/>
<polygon fill="#000000" stroke="#000000" points="571.9713,-252.9848 582.3453,-250.8327 572.8935,-246.0458 571.9713,-252.9848"/>
</g>
<!-- src/player.ts&#45;&gt;src/utils/log.ts -->
<g id="edge42" class="edge">
<title>src/player.ts&#45;&gt;src/utils/log.ts</title>
<path fill="none" stroke="#000000" d="M450.5331,-174.0751C460.7982,-184.6614 477.886,-203.5935 488.6592,-222.5 493.8101,-231.5396 490.2594,-236.297 496.6592,-244.5 519.6007,-273.9053 537.4123,-267.7614 566.178,-291.5 570.0562,-294.7005 569.8566,-296.9292 574.178,-299.5 577.3824,-301.4063 580.8651,-303.0693 584.4385,-304.5164"/>
<polygon fill="#000000" stroke="#000000" points="583.386,-307.8563 593.9808,-307.8623 585.7022,-301.2505 583.386,-307.8563"/>
</g>
<!-- src/plugins/interface.ts -->
<g id="node21" class="node">
<title>src/plugins/interface.ts</title>
<g id="a_node21"><a xlink:href="src/plugins/interface.ts" xlink:title="interface.ts">
<path fill="#ddfeff" stroke="#000000" d="M78.3634,-276C78.3634,-276 29.6567,-276 29.6567,-276 26.8233,-276 23.99,-273.1667 23.99,-270.3333 23.99,-270.3333 23.99,-264.6667 23.99,-264.6667 23.99,-261.8333 26.8233,-259 29.6567,-259 29.6567,-259 78.3634,-259 78.3634,-259 81.1967,-259 84.03,-261.8333 84.03,-264.6667 84.03,-264.6667 84.03,-270.3333 84.03,-270.3333 84.03,-273.1667 81.1967,-276 78.3634,-276"/>
<text text-anchor="middle" x="54.01" y="-264.8" font-family="Helvetica,sans-Serif" font-size="9.00" fill="#000000">interface.ts</text>
</a>
</g>
</g>
<!-- src/types/eos.ts -->
<g id="node22" class="node">
<title>src/types/eos.ts</title>
<g id="a_node22"><a xlink:href="src/types/eos.ts" xlink:title="eos.ts">
<path fill="#ddfeff" stroke="#000000" d="M838.5924,-364C838.5924,-364 795.9257,-364 795.9257,-364 793.0924,-364 790.259,-361.1667 790.259,-358.3333 790.259,-358.3333 790.259,-352.6667 790.259,-352.6667 790.259,-349.8333 793.0924,-347 795.9257,-347 795.9257,-347 838.5924,-347 838.5924,-347 841.4257,-347 844.259,-349.8333 844.259,-352.6667 844.259,-352.6667 844.259,-358.3333 844.259,-358.3333 844.259,-361.1667 841.4257,-364 838.5924,-364"/>
<text text-anchor="middle" x="817.259" y="-352.8" font-family="Helvetica,sans-Serif" font-size="9.00" fill="#000000">eos.ts</text>
</a>
</g>
</g>
<!-- src/types/scatter.ts -->
<g id="node24" class="node">
<title>src/types/scatter.ts</title>
<g id="a_node24"><a xlink:href="src/types/scatter.ts" xlink:title="scatter.ts">
<path fill="#ddfeff" stroke="#000000" d="M838.5924,-306C838.5924,-306 795.9257,-306 795.9257,-306 793.0924,-306 790.259,-303.1667 790.259,-300.3333 790.259,-300.3333 790.259,-294.6667 790.259,-294.6667 790.259,-291.8333 793.0924,-289 795.9257,-289 795.9257,-289 838.5924,-289 838.5924,-289 841.4257,-289 844.259,-291.8333 844.259,-294.6667 844.259,-294.6667 844.259,-300.3333 844.259,-300.3333 844.259,-303.1667 841.4257,-306 838.5924,-306"/>
<text text-anchor="middle" x="817.259" y="-294.8" font-family="Helvetica,sans-Serif" font-size="9.00" fill="#000000">scatter.ts</text>
</a>
</g>
</g>
<!-- src/utils/log.ts&#45;&gt;src/types/libs.ts -->
<g id="edge43" class="edge">
<title>src/utils/log.ts&#45;&gt;src/types/libs.ts</title>
<path fill="none" stroke="#000000" d="M648.6759,-315.3076C682.7749,-317.5715 741.3665,-321.4614 779.7086,-324.007"/>
<polygon fill="#000000" stroke="#000000" points="779.7389,-327.5166 789.9489,-324.6868 780.2027,-320.532 779.7389,-327.5166"/>
</g>
</g>
</svg>
